<svg width="190" height="174" viewBox="0 0 190 174" fill="none" xmlns="http://www.w3.org/2000/svg">
<path fill-rule="evenodd" clip-rule="evenodd" d="M153 156.782L172.001 174L172.001 131L153 111.716V156.782Z" fill="#6D6AF6"/>
<rect x="153" y="120" width="8" height="29" fill="#C3C8FA"/>
<path fill-rule="evenodd" clip-rule="evenodd" d="M44.1333 14.2455L0.133301 14.2455L15.9857 31H59.8906L44.1333 14.2455Z" fill="#6D6AF6"/>
<rect x="33" y="22" width="28" height="9" fill="#C3C8FA"/>
<path d="M32.5 22L79.5 22L161 103L161 149L32.5 22Z" fill="#6D6AF6"/>
<path d="M74.4708 46.1965L75.3886 42.883L74.8752 42.3696L72.7596 44.4853L71.6706 43.3963L77.0998 37.9672L79.1377 40.0051C79.5577 40.4251 79.8403 40.8581 79.9855 41.304C80.1359 41.7448 80.1566 42.1648 80.0477 42.5641C79.9492 42.9634 79.7444 43.3186 79.4332 43.6297C79.0754 43.9875 78.6476 44.2079 78.1498 44.2908C77.6572 44.3686 77.1516 44.2571 76.6331 43.9564L75.7308 47.4566L74.4708 46.1965ZM75.6919 41.5529L76.602 42.463C76.8976 42.7585 77.1879 42.9089 77.4731 42.9141C77.7635 42.9141 78.0358 42.7871 78.2898 42.533C78.5388 42.2841 78.658 42.0196 78.6476 41.7396C78.6425 41.4544 78.4921 41.164 78.1965 40.8684L77.2865 39.9584L75.6919 41.5529ZM83.0705 45.6958L81.7093 47.0569L83.5372 48.8848L82.6738 49.7482L80.846 47.9203L79.407 49.3593L81.4682 51.4205L80.5815 52.3072L77.4313 49.1571L82.8683 43.7201L86.0184 46.8703L85.1317 47.757L83.0705 45.6958ZM84.8068 51.0878C85.3409 50.5537 85.9372 50.1959 86.5958 50.0144C87.2647 49.8329 87.9233 49.8329 88.5714 50.0144C89.23 50.1959 89.8185 50.5459 90.3371 51.0645C90.9438 51.6712 91.3197 52.3582 91.4649 53.1257C91.6101 53.8931 91.4986 54.6424 91.1305 55.3736L89.8782 54.1213C90.013 53.7376 90.0311 53.3668 89.9326 53.009C89.8393 52.6564 89.6448 52.3323 89.3493 52.0367C89.0329 51.7204 88.6752 51.513 88.2759 51.4145C87.887 51.316 87.4877 51.3315 87.078 51.4612C86.6736 51.596 86.2898 51.8449 85.9269 52.2079C85.5691 52.5657 85.3202 52.9494 85.1802 53.359C85.0505 53.7687 85.0324 54.1706 85.1257 54.5646C85.2294 54.9587 85.4394 55.3139 85.7557 55.6303C86.0513 55.9258 86.3754 56.1203 86.728 56.2136C87.091 56.307 87.4643 56.2862 87.8481 56.1514L89.1004 57.4037C88.364 57.777 87.6121 57.8911 86.8447 57.7459C86.0876 57.6007 85.4031 57.2222 84.7912 56.6103C84.2727 56.0918 83.9201 55.5058 83.7334 54.8524C83.5571 54.1991 83.5571 53.5405 83.7334 52.8768C83.9149 52.2182 84.2727 51.6219 84.8068 51.0878ZM91.5628 63.3974C91.0546 62.8892 90.7072 62.3032 90.5205 61.6395C90.3338 60.9758 90.326 60.3094 90.4971 59.6405C90.6735 58.9664 91.0287 58.3623 91.5628 57.8282C92.0917 57.2993 92.6906 56.9493 93.3595 56.7781C94.0336 56.6018 94.7025 56.607 95.3663 56.7937C96.03 56.9804 96.616 57.3278 97.1242 57.836C97.6375 58.3493 97.9849 58.9353 98.1664 59.5938C98.3531 60.2576 98.3557 60.9239 98.1742 61.5928C98.0031 62.2618 97.6531 62.8607 97.1242 63.3896C96.5901 63.9237 95.9859 64.2789 95.3118 64.4552C94.6481 64.6315 93.9844 64.6263 93.3206 64.4396C92.6569 64.253 92.0709 63.9055 91.5628 63.3974ZM92.535 62.4251C92.8617 62.7518 93.2221 62.967 93.6162 63.0707C94.0155 63.1692 94.4225 63.1511 94.8374 63.0162C95.2522 62.8814 95.6411 62.6325 96.0041 62.2695C96.3671 61.9066 96.6134 61.5202 96.743 61.1106C96.8778 60.6958 96.8934 60.2913 96.7897 59.8972C96.686 59.5031 96.4708 59.1427 96.1441 58.816C95.8174 58.4893 95.4544 58.2716 95.0552 58.1627C94.6611 58.059 94.2566 58.0745 93.8418 58.2093C93.4321 58.339 93.0458 58.5853 92.6828 58.9483C92.3198 59.3112 92.0709 59.7001 91.9361 60.115C91.8013 60.5298 91.7831 60.9369 91.8817 61.3362C91.9906 61.7354 92.2083 62.0984 92.535 62.4251ZM107.33 68.1977L101.901 73.6269L100.812 72.5379L104.344 69.0067L99.3577 71.0834L98.5332 70.2589L100.602 65.2654L97.0709 68.7966L95.982 67.7077L101.411 62.2785L102.648 63.5153L100.338 69.2789L106.101 66.9688L107.33 68.1977ZM115.104 75.9713L109.675 81.4005L108.586 80.3116L112.117 76.7803L107.131 78.857L106.307 78.0326L108.376 73.039L104.845 76.5703L103.756 75.4813L109.185 70.0521L110.421 71.2889L108.111 77.0525L113.875 74.7424L115.104 75.9713ZM117.168 79.7936L115.807 81.1548L117.635 82.9827L116.772 83.8461L114.944 82.0182L113.505 83.4572L115.566 85.5184L114.679 86.4051L111.529 83.2549L116.966 77.818L120.116 80.9681L119.23 81.8549L117.168 79.7936ZM121.09 92.8161L120.001 91.7271L121.261 85.5357L117.536 89.2614L116.447 88.1725L121.884 82.7356L122.973 83.8245L121.705 90.0237L125.438 86.2902L126.527 87.3791L121.09 92.8161ZM130.271 91.1387C130.842 91.7091 131.231 92.321 131.438 92.9744C131.651 93.6329 131.666 94.2863 131.485 94.9345C131.314 95.5827 130.956 96.179 130.411 96.7234C129.867 97.2679 129.271 97.6257 128.622 97.7968C127.985 97.968 127.336 97.9472 126.678 97.7346C126.024 97.5272 125.413 97.1383 124.842 96.5679L122.944 94.67L128.373 89.2408L130.271 91.1387ZM125.729 95.6034C126.299 96.1738 126.896 96.459 127.518 96.459C128.14 96.459 128.734 96.1764 129.299 95.6112C129.864 95.046 130.149 94.4496 130.155 93.8222C130.165 93.1896 129.885 92.5881 129.315 92.0177L128.545 91.2476L124.959 94.8334L125.729 95.6034ZM134.937 97.5619L133.575 98.9231L135.403 100.751L134.54 101.614L132.712 99.7865L131.273 101.225L133.334 103.287L132.448 104.173L129.297 101.023L134.734 95.5863L137.885 98.7364L136.998 99.6231L134.937 97.5619ZM141.542 102.409C142.112 102.98 142.501 103.592 142.709 104.245C142.921 104.904 142.937 105.557 142.755 106.205C142.584 106.853 142.227 107.45 141.682 107.994C141.138 108.539 140.541 108.896 139.893 109.068C139.255 109.239 138.607 109.218 137.949 109.005C137.295 108.798 136.683 108.409 136.113 107.839L134.215 105.941L139.644 100.512L141.542 102.409ZM137 106.874C137.57 107.445 138.166 107.73 138.789 107.73C139.411 107.73 140.005 107.447 140.57 106.882C141.135 106.317 141.42 105.72 141.425 105.093C141.436 104.46 141.156 103.859 140.585 103.288L139.815 102.518L136.23 106.104L137 106.874Z" fill="white"/>
</svg>
