<svg width="184" height="30" viewBox="0 0 184 30" fill="none" xmlns="http://www.w3.org/2000/svg">
<path d="M144 11.0001L171 11.0001L184 30.0001H157L144 11.0001Z" fill="#6D6AF6"/>
<path d="M150 20.0001H167L157 30.0001L150 20.0001Z" fill="#C3C8FA"/>
<path d="M40 11.0001H13L0 30.0001H27L40 11.0001Z" fill="#6D6AF6"/>
<path d="M34 20.0001H17.1579L27 30.0001L34 20.0001Z" fill="#C3C8FA"/>
<path d="M28 6.10352e-05L155 0L167 20.0001H17L28 6.10352e-05Z" fill="#6D6AF6"/>
<path d="M57.8044 12.0001L56.4184 9.55206H55.8244V12.0001H54.5644V5.71806H56.9224C57.4084 5.71806 57.8224 5.80506 58.1644 5.97906C58.5064 6.14706 58.7614 6.37806 58.9294 6.67206C59.1034 6.96006 59.1904 7.28406 59.1904 7.64406C59.1904 8.05806 59.0704 8.43306 58.8304 8.76906C58.5904 9.09906 58.2334 9.32706 57.7594 9.45306L59.2624 12.0001H57.8044ZM55.8244 8.60706H56.8774C57.2194 8.60706 57.4744 8.52606 57.6424 8.36406C57.8104 8.19606 57.8944 7.96506 57.8944 7.67106C57.8944 7.38306 57.8104 7.16106 57.6424 7.00506C57.4744 6.84306 57.2194 6.76206 56.8774 6.76206H55.8244V8.60706ZM62.49 6.73506V8.31006H64.605V9.30906H62.49V10.9741H64.875V12.0001H61.23V5.70906H64.875V6.73506H62.49ZM66.614 8.85006C66.614 8.23206 66.752 7.68006 67.028 7.19406C67.31 6.70206 67.691 6.32106 68.171 6.05106C68.657 5.77506 69.2 5.63706 69.8 5.63706C70.502 5.63706 71.117 5.81706 71.645 6.17706C72.173 6.53706 72.542 7.03506 72.752 7.67106H71.303C71.159 7.37106 70.955 7.14606 70.691 6.99606C70.433 6.84606 70.133 6.77106 69.791 6.77106C69.425 6.77106 69.098 6.85806 68.81 7.03206C68.528 7.20006 68.306 7.44006 68.144 7.75206C67.988 8.06406 67.91 8.43006 67.91 8.85006C67.91 9.26406 67.988 9.63006 68.144 9.94806C68.306 10.2601 68.528 10.5031 68.81 10.6771C69.098 10.8451 69.425 10.9291 69.791 10.9291C70.133 10.9291 70.433 10.8541 70.691 10.7041C70.955 10.5481 71.159 10.3201 71.303 10.0201H72.752C72.542 10.6621 72.173 11.1631 71.645 11.5231C71.123 11.8771 70.508 12.0541 69.8 12.0541C69.2 12.0541 68.657 11.9191 68.171 11.6491C67.691 11.3731 67.31 10.9921 67.028 10.5061C66.752 10.0201 66.614 9.46806 66.614 8.85006ZM77.6442 12.0631C77.0562 12.0631 76.5162 11.9251 76.0242 11.6491C75.5322 11.3731 75.1422 10.9921 74.8542 10.5061C74.5662 10.0141 74.4222 9.45906 74.4222 8.84106C74.4222 8.22906 74.5662 7.68006 74.8542 7.19406C75.1422 6.70206 75.5322 6.31806 76.0242 6.04206C76.5162 5.76606 77.0562 5.62806 77.6442 5.62806C78.2382 5.62806 78.7782 5.76606 79.2642 6.04206C79.7562 6.31806 80.1432 6.70206 80.4252 7.19406C80.7132 7.68006 80.8572 8.22906 80.8572 8.84106C80.8572 9.45906 80.7132 10.0141 80.4252 10.5061C80.1432 10.9921 79.7562 11.3731 79.2642 11.6491C78.7722 11.9251 78.2322 12.0631 77.6442 12.0631ZM77.6442 10.9381C78.0222 10.9381 78.3552 10.8541 78.6432 10.6861C78.9312 10.5121 79.1562 10.2661 79.3182 9.94806C79.4802 9.63006 79.5612 9.26106 79.5612 8.84106C79.5612 8.42106 79.4802 8.05506 79.3182 7.74306C79.1562 7.42506 78.9312 7.18206 78.6432 7.01406C78.3552 6.84606 78.0222 6.76206 77.6442 6.76206C77.2662 6.76206 76.9302 6.84606 76.6362 7.01406C76.3482 7.18206 76.1232 7.42506 75.9612 7.74306C75.7992 8.05506 75.7182 8.42106 75.7182 8.84106C75.7182 9.26106 75.7992 9.63006 75.9612 9.94806C76.1232 10.2661 76.3482 10.5121 76.6362 10.6861C76.9302 10.8541 77.2662 10.9381 77.6442 10.9381ZM89.5436 5.71806V12.0001H88.2836V7.91406L86.6006 12.0001H85.6466L83.9546 7.91406V12.0001H82.6946V5.71806H84.1256L86.1236 10.3891L88.1216 5.71806H89.5436ZM98.5384 5.71806V12.0001H97.2784V7.91406L95.5954 12.0001H94.6414L92.9494 7.91406V12.0001H91.6894V5.71806H93.1204L95.1184 10.3891L97.1164 5.71806H98.5384ZM101.944 6.73506V8.31006H104.059V9.30906H101.944V10.9741H104.329V12.0001H100.684V5.70906H104.329V6.73506H101.944ZM111.747 12.0001H110.487L107.634 7.68906V12.0001H106.374V5.70906H107.634L110.487 10.0291V5.70906H111.747V12.0001ZM116.088 5.71806C116.748 5.71806 117.327 5.84706 117.825 6.10506C118.329 6.36306 118.716 6.73206 118.986 7.21206C119.262 7.68606 119.4 8.23806 119.4 8.86806C119.4 9.49806 119.262 10.0501 118.986 10.5241C118.716 10.9921 118.329 11.3551 117.825 11.6131C117.327 11.8711 116.748 12.0001 116.088 12.0001H113.892V5.71806H116.088ZM116.043 10.9291C116.703 10.9291 117.213 10.7491 117.573 10.3891C117.933 10.0291 118.113 9.52206 118.113 8.86806C118.113 8.21406 117.933 7.70406 117.573 7.33806C117.213 6.96606 116.703 6.78006 116.043 6.78006H115.152V10.9291H116.043ZM122.503 6.73506V8.31006H124.618V9.30906H122.503V10.9741H124.888V12.0001H121.243V5.70906H124.888V6.73506H122.503ZM129.129 5.71806C129.789 5.71806 130.368 5.84706 130.866 6.10506C131.37 6.36306 131.757 6.73206 132.027 7.21206C132.303 7.68606 132.441 8.23806 132.441 8.86806C132.441 9.49806 132.303 10.0501 132.027 10.5241C131.757 10.9921 131.37 11.3551 130.866 11.6131C130.368 11.8711 129.789 12.0001 129.129 12.0001H126.933V5.71806H129.129ZM129.084 10.9291C129.744 10.9291 130.254 10.7491 130.614 10.3891C130.974 10.0291 131.154 9.52206 131.154 8.86806C131.154 8.21406 130.974 7.70406 130.614 7.33806C130.254 6.96606 129.744 6.78006 129.084 6.78006H128.193V10.9291H129.084Z" fill="white"/>
</svg>
