
<svg width="150" height="32" fill="none" xmlns="http://www.w3.org/2000/svg">
  <path d="M32.632 5.455c1.312.593 2.393 1.512 3.245 2.784.765 1.11 1.263 2.412 1.492 3.886.134.86.182 2.105.163 3.732H23.867c.076 1.885.727 3.206 1.961 3.962.756.468 1.656.708 2.709.708 1.12 0 2.028-.288 2.727-.862.383-.306.718-.746 1.014-1.291h5.015c-.134 1.12-.737 2.248-1.818 3.397-1.685 1.827-4.039 2.746-7.063 2.746-2.497 0-4.698-.775-6.612-2.316-1.914-1.54-2.861-4.048-2.861-7.53 0-3.255.86-5.752 2.583-7.494 1.723-1.741 3.962-2.612 6.709-2.612 1.626.01 3.09.306 4.401.89Zm-7.34 4.249c-.688.717-1.129 1.684-1.3 2.909h8.449c-.086-1.302-.526-2.297-1.311-2.967-.785-.68-1.751-1.014-2.91-1.014-1.253-.01-2.229.354-2.927 1.072ZM56.202 6.153c1.224 1.014 1.846 2.708 1.846 5.062v12.66h-5.024V12.44c0-.986-.134-1.751-.392-2.277-.478-.967-1.387-1.445-2.737-1.445-1.655 0-2.785.708-3.397 2.124-.316.746-.478 1.704-.478 2.861v10.173h-4.91V5.11h4.747v2.746c.622-.966 1.215-1.665 1.78-2.086 1.005-.756 2.277-1.139 3.828-1.139 1.933-.01 3.512.498 4.736 1.522ZM75.896 5.455c1.31.593 2.392 1.512 3.244 2.784.775 1.11 1.263 2.412 1.493 3.886.134.86.182 2.105.163 3.732H67.12c.076 1.885.727 3.206 1.961 3.962.756.468 1.656.708 2.709.708 1.12 0 2.028-.288 2.727-.862.383-.306.718-.746 1.014-1.291h5.015c-.134 1.12-.737 2.248-1.819 3.397-1.684 1.827-4.038 2.746-7.062 2.746-2.497 0-4.698-.775-6.612-2.316-1.914-1.54-2.862-4.048-2.862-7.53 0-3.255.862-5.752 2.584-7.494 1.723-1.741 3.962-2.612 6.708-2.612 1.627.01 3.1.306 4.412.89Zm-7.34 4.249c-.689.717-1.13 1.684-1.301 2.909h8.45c-.087-1.302-.527-2.297-1.302-2.967-.785-.68-1.751-1.014-2.91-1.014-1.272-.01-2.248.354-2.937 1.072ZM94.756 4.632c.067.01.201.019.421.028v5.034a9.767 9.767 0 0 0-.823-.067c-.239-.01-.43-.02-.584-.02-1.97 0-3.301.642-3.98 1.934-.383.718-.565 1.837-.565 3.35v8.985h-4.938V5.072h4.69v3.273c.755-1.254 1.415-2.106 1.98-2.575.919-.765 2.115-1.157 3.579-1.157.077.01.153.019.22.019ZM106.548 12.44c.918-.115 1.559-.258 1.961-.43.708-.297 1.062-.766 1.062-1.398 0-.765-.267-1.301-.813-1.598-.545-.296-1.34-.44-2.383-.44-1.177 0-2.009.287-2.497.861-.345.43-.584 1.005-.699 1.723h-4.737c.105-1.646.565-2.995 1.388-4.058 1.301-1.655 3.54-2.478 6.708-2.478 2.067 0 3.895.411 5.502 1.225 1.599.813 2.402 2.354 2.402 4.622v8.622c0 .593.01 1.32.039 2.172.028.641.134 1.082.296 1.311.163.23.402.421.718.565v.727h-5.34a5.232 5.232 0 0 1-.306-1.072 11.204 11.204 0 0 1-.134-1.139 10.002 10.002 0 0 1-2.354 1.876c-1.062.613-2.258.919-3.598.919-1.704 0-3.12-.488-4.23-1.455-1.12-.966-1.675-2.344-1.675-4.124 0-2.316.9-3.981 2.689-5.024.977-.565 2.422-.967 4.335-1.206l1.666-.2Zm2.995 2.287a4.666 4.666 0 0 1-.957.47c-.316.123-.756.229-1.321.334l-1.119.21c-1.043.182-1.799.412-2.259.67-.775.45-1.158 1.14-1.158 2.087 0 .842.24 1.445.708 1.818.469.373 1.043.564 1.723.564a5.085 5.085 0 0 0 2.957-.928c.899-.622 1.368-1.751 1.407-3.397v-1.828h.019ZM117.849 8.747V5.244h2.622V0h4.851v5.244h3.044v3.503h-3.044v9.933c0 .765.096 1.253.297 1.435.201.182.794.287 1.79.287.153 0 .306 0 .468-.01.163-.009.326-.009.489-.028v3.675l-2.326.086c-2.316.076-3.904-.326-4.756-1.206-.555-.565-.823-1.426-.823-2.603V8.746h-2.612ZM144.805 5.455c1.311.593 2.392 1.512 3.244 2.784.775 1.11 1.263 2.412 1.493 3.886.134.86.182 2.105.163 3.732h-13.666c.077 1.885.728 3.206 1.962 3.962.756.468 1.656.708 2.708.708 1.12 0 2.029-.288 2.728-.862.382-.306.717-.746 1.004-1.291h5.015c-.134 1.12-.737 2.248-1.818 3.397-1.685 1.827-4.039 2.746-7.063 2.746-2.497 0-4.698-.775-6.612-2.316-1.914-1.54-2.861-4.048-2.861-7.53 0-3.255.861-5.752 2.583-7.494 1.723-1.741 3.962-2.612 6.709-2.612 1.626.01 3.1.306 4.411.89Zm-7.34 4.249c-.689.717-1.129 1.684-1.301 2.909h8.45c-.086-1.302-.527-2.297-1.311-2.967-.785-.68-1.752-1.014-2.909-1.014-1.264-.01-2.24.354-2.929 1.072ZM.65 9.072v-4h14.843v4.086l-9.206 10.68h9.531v4.028H0v-3.828L9.302 9.072H.65ZM15.837 27.943H.019V32h15.818v-4.057Z" fill="#4848FF
"/>
</svg>
