<svg width="149" height="22" viewBox="0 0 149 22" fill="none" xmlns="http://www.w3.org/2000/svg">
<path fill-rule="evenodd" clip-rule="evenodd" d="M78.6147 6.24013V3.9488H80.3649V0.5H83.6016V3.9488H85.6394V6.24013H83.6016V12.7598C83.6016 13.2558 83.6735 13.5865 83.7934 13.7047C83.9132 13.8228 84.3208 13.8936 84.9921 13.8936H85.3038C85.4237 13.8936 85.5196 13.8936 85.6394 13.87V16.2794L84.0811 16.3267C82.5227 16.3739 81.4678 16.1141 80.9163 15.5235C80.5567 15.1456 80.3649 14.5787 80.3649 13.8228V6.24013H78.6147ZM52.793 5.88588C52.2176 5.05911 51.4984 4.44494 50.6353 4.06699C49.7482 3.68904 48.7652 3.50007 47.7103 3.50007C45.8642 3.50007 44.3778 4.06699 43.227 5.20084C42.0761 6.33469 41.5007 7.98823 41.5007 10.1142C41.5007 12.3819 42.1481 14.0354 43.4188 15.0512C44.6894 16.0669 46.1759 16.563 47.8302 16.563C49.8441 16.563 51.4025 15.9724 52.5293 14.7677C53.2486 14.0118 53.6561 13.2795 53.752 12.5473H50.4195C50.2277 12.9016 50.0119 13.185 49.7482 13.3976C49.2687 13.7756 48.6693 13.9646 47.9261 13.9646C47.2308 13.9646 46.6314 13.7992 46.1279 13.4921C45.2888 12.9961 44.8573 12.1221 44.8093 10.8937H53.9199C53.9199 9.83073 53.8959 9.00397 53.8 8.43704C53.6322 7.46854 53.2965 6.61816 52.793 5.88588ZM44.8573 8.76775C44.9771 7.9646 45.2648 7.32681 45.7204 6.85438C46.1999 6.38194 46.8472 6.14572 47.6863 6.16934C48.4535 6.16934 49.1009 6.38194 49.6283 6.83075C50.1318 7.25595 50.4435 7.91736 50.4914 8.76775H44.8573ZM23.9276 5.8857C23.3522 5.05893 22.633 4.44476 21.7698 4.06681C20.9067 3.68886 19.9238 3.49989 18.8209 3.52351C16.9748 3.52351 15.4884 4.09043 14.3375 5.22429C13.1867 6.35814 12.6113 8.01167 12.6113 10.1376C12.6113 12.4053 13.2587 14.0589 14.5294 15.0746C15.8 16.0904 17.2865 16.5864 18.9408 16.5864C20.9547 16.5864 22.5371 15.9722 23.6639 14.7675C24.3831 14.0116 24.7907 13.2794 24.8866 12.5471H21.5541C21.3623 12.9014 21.1465 13.1849 20.8828 13.3975C20.4033 13.7754 19.8039 13.9644 19.0607 13.9644C18.3654 13.9644 17.766 13.799 17.2625 13.4919C16.4234 12.9959 15.9918 12.1219 15.9439 10.8935H25.0544C25.0544 9.83055 25.0305 9.00379 24.9346 8.43686C24.7667 7.46836 24.4311 6.61798 23.9276 5.8857ZM16.0158 8.76757C16.1357 7.96442 16.4234 7.32663 16.8789 6.8542C17.3344 6.38176 17.9818 6.14554 18.8449 6.16916C19.6121 6.16916 20.2594 6.38176 20.7869 6.83057C21.2903 7.25577 21.602 7.91718 21.65 8.76757H16.0158ZM112.649 8.74009C113.248 8.66922 113.704 8.57474 113.968 8.45663C114.447 8.26765 114.663 7.96057 114.663 7.53537C114.663 7.03931 114.471 6.68499 114.111 6.49601C113.752 6.30704 113.224 6.21255 112.529 6.21255C111.738 6.21255 111.186 6.40152 110.875 6.77947C110.635 7.06294 110.491 7.44089 110.419 7.91332H107.255C107.326 6.82672 107.638 5.95271 108.166 5.24405C109.029 4.15745 110.515 3.61414 112.649 3.61414C114.016 3.61414 115.238 3.87398 116.317 4.41729C117.396 4.96059 117.923 5.95271 117.923 7.44089V13.1101C117.923 13.5117 117.923 13.9841 117.947 14.5274C117.971 14.9526 118.043 15.2361 118.139 15.3778C118.235 15.5196 118.403 15.6613 118.619 15.7558V16.2282H115.07C114.975 15.9684 114.903 15.7558 114.855 15.5196C114.807 15.307 114.783 15.0471 114.759 14.7637C114.303 15.2361 113.776 15.6613 113.176 15.992C112.457 16.3936 111.666 16.5826 110.779 16.5826C109.628 16.5826 108.693 16.2755 107.95 15.6377C107.207 14.9999 106.847 14.1023 106.847 12.9212C106.847 11.4094 107.446 10.2991 108.645 9.63772C109.292 9.25977 110.275 8.99993 111.546 8.83458L112.649 8.74009ZM114.663 10.2519C114.447 10.37 114.231 10.4881 114.039 10.559C113.824 10.6298 113.536 10.7007 113.152 10.7716L112.409 10.9133C111.714 11.0314 111.21 11.1731 110.899 11.3621C110.371 11.6456 110.132 12.118 110.132 12.7322C110.132 13.2755 110.299 13.6771 110.611 13.9369C110.923 14.1731 111.306 14.3149 111.762 14.3149C112.481 14.3149 113.128 14.1023 113.728 13.7007C114.327 13.2991 114.639 12.5432 114.663 11.4802V10.2519ZM128.646 13.7313C128.282 13.9531 127.822 14.064 127.268 14.064C126.729 14.064 126.269 13.9531 125.889 13.7313C125.509 13.5095 125.2 13.2242 124.962 12.8756C124.74 12.5112 124.574 12.0913 124.463 11.6159C124.368 11.1406 124.32 10.6573 124.32 10.1661C124.32 9.65906 124.368 9.16786 124.463 8.6925C124.558 8.21714 124.717 7.79724 124.938 7.4328C125.176 7.06836 125.477 6.77523 125.842 6.55339C126.222 6.31572 126.689 6.19688 127.244 6.19688C127.783 6.19688 128.234 6.31572 128.599 6.55339C128.979 6.77523 129.288 7.07629 129.526 7.45657C129.763 7.82101 129.93 8.24091 130.025 8.71627C130.136 9.19163 130.191 9.6749 130.191 10.1661C130.191 10.6573 130.144 11.1406 130.048 11.6159C129.953 12.0913 129.787 12.5112 129.549 12.8756C129.327 13.2242 129.026 13.5095 128.646 13.7313ZM124.273 3.98647H121.429V21.4984H124.439V14.7533H124.487C124.899 15.3554 125.422 15.8149 126.055 16.1318C126.705 16.4329 127.41 16.5834 128.171 16.5834C129.074 16.5834 129.858 16.4091 130.524 16.0605C131.205 15.7119 131.768 15.2445 132.211 14.6582C132.671 14.072 133.012 13.3985 133.233 12.638C133.455 11.8774 133.566 11.0851 133.566 10.2612C133.566 9.38969 133.455 8.55782 133.233 7.76555C133.012 6.95745 132.671 6.25233 132.211 5.65022C131.752 5.0481 131.173 4.56482 130.476 4.20038C129.779 3.83594 128.947 3.65372 127.981 3.65372C127.22 3.65372 126.523 3.80425 125.889 4.1053C125.255 4.40636 124.732 4.88964 124.32 5.55514H124.273V3.98647ZM143.142 13.7313C142.778 13.9531 142.318 14.064 141.763 14.064C141.225 14.064 140.765 13.9531 140.385 13.7313C140.005 13.5095 139.696 13.2242 139.458 12.8756C139.236 12.5112 139.07 12.0913 138.959 11.6159C138.864 11.1406 138.816 10.6573 138.816 10.1661C138.816 9.65906 138.864 9.16786 138.959 8.6925C139.054 8.21714 139.212 7.79724 139.434 7.4328C139.672 7.06836 139.973 6.77523 140.337 6.55339C140.718 6.31572 141.185 6.19688 141.74 6.19688C142.278 6.19688 142.73 6.31572 143.094 6.55339C143.475 6.77523 143.784 7.07629 144.021 7.45657C144.259 7.82101 144.425 8.24091 144.52 8.71627C144.631 9.19163 144.687 9.6749 144.687 10.1661C144.687 10.6573 144.639 11.1406 144.544 11.6159C144.449 12.0913 144.283 12.5112 144.045 12.8756C143.823 13.2242 143.522 13.5095 143.142 13.7313ZM138.769 3.98647H135.925V21.4984H138.935V14.7533H138.983C139.395 15.3554 139.917 15.8149 140.551 16.1318C141.201 16.4329 141.906 16.5834 142.667 16.5834C143.57 16.5834 144.354 16.4091 145.02 16.0605C145.701 15.7119 146.263 15.2445 146.707 14.6582C147.167 14.072 147.507 13.3985 147.729 12.638C147.951 11.8774 148.062 11.0851 148.062 10.2612C148.062 9.38969 147.951 8.55782 147.729 7.76555C147.507 6.95745 147.167 6.25233 146.707 5.65022C146.248 5.0481 145.669 4.56482 144.972 4.20038C144.275 3.83594 143.443 3.65372 142.476 3.65372C141.716 3.65372 141.019 3.80425 140.385 4.1053C139.751 4.40636 139.228 4.88964 138.816 5.55514H138.769V3.98647ZM0.0246735 18.8308H10.5737V21.5H0.0246735V18.8308ZM0.431553 6.45279V3.83076H10.3333V6.52365L4.19565 13.5157H10.5491V16.1614H0V13.6575L6.20956 6.45279H0.431553ZM37.4977 4.5392C38.3129 5.20061 38.7205 6.31084 38.7205 7.86989V16.1848H35.3639V8.64941C35.3639 8.01162 35.268 7.49194 35.1002 7.16123C34.7885 6.52344 34.1652 6.21636 33.2781 6.21636C32.1753 6.21636 31.408 6.68879 31.0005 7.61005C30.7847 8.10611 30.6888 8.72028 30.6888 9.4998V16.1848H27.4042V3.85417H30.5689V5.64943C30.9765 5.01164 31.3841 4.56282 31.7677 4.27936C32.439 3.7833 33.2781 3.52346 34.309 3.52346C35.6277 3.52346 36.6826 3.87779 37.4977 4.5392ZM63.1989 3.54742C63.2468 3.54742 63.3427 3.54742 63.4866 3.57105V6.87811C63.446 6.87367 63.4071 6.86922 63.3696 6.86494L63.3695 6.86493L63.3695 6.86493C63.2076 6.84643 63.0714 6.83087 62.9352 6.83087H62.5516C61.2329 6.83087 60.3459 7.25606 59.8903 8.10645C59.6266 8.57889 59.5067 9.31117 59.5067 10.3033V16.2088H56.2221V3.83089H59.3389V5.98048C59.8424 5.15371 60.2739 4.58679 60.6575 4.30332C61.2809 3.80727 62.0721 3.54742 63.055 3.54742C63.127 3.5238 63.1749 3.5238 63.1989 3.54742ZM72.3803 8.45663C72.1166 8.57474 71.661 8.66922 71.0617 8.74009L69.9588 8.83458C68.6881 8.99993 67.7051 9.25977 67.0578 9.63772C65.8591 10.2991 65.2597 11.4094 65.2597 12.9212C65.2597 14.1023 65.6193 14.9999 66.3625 15.6377C67.1058 16.2755 68.0408 16.5826 69.1916 16.5826C70.0787 16.5826 70.8699 16.3936 71.5891 15.992C72.1885 15.6613 72.716 15.2361 73.1715 14.7637C73.1955 15.0471 73.2194 15.307 73.2674 15.5196C73.3153 15.7558 73.3873 15.9684 73.4832 16.2282H77.0315V15.7558C76.8157 15.6613 76.6479 15.5196 76.552 15.3778C76.4561 15.2361 76.3842 14.9526 76.3602 14.5274C76.3362 13.9841 76.3362 13.5117 76.3362 13.1101V7.44089C76.3362 5.95271 75.8088 4.96059 74.7299 4.41729C73.651 3.87398 72.4282 3.61414 71.0617 3.61414C68.9279 3.61414 67.4414 4.15745 66.5783 5.24405C66.0509 5.95271 65.7392 6.82672 65.6672 7.91332H68.832C68.9039 7.44089 69.0478 7.06294 69.2875 6.77947C69.5992 6.40152 70.1506 6.21255 70.9418 6.21255C71.6371 6.21255 72.1645 6.30704 72.5241 6.49601C72.8838 6.68499 73.0756 7.03931 73.0756 7.53537C73.0756 7.96057 72.8598 8.26765 72.3803 8.45663ZM72.4522 10.559C72.644 10.4881 72.8598 10.37 73.0756 10.2519V11.4802C73.0516 12.5432 72.7399 13.2991 72.1405 13.7007C71.5412 14.1023 70.8938 14.3149 70.1746 14.3149C69.7191 14.3149 69.3354 14.1731 69.0238 13.9369C68.7121 13.6771 68.5443 13.2755 68.5443 12.7322C68.5443 12.118 68.784 11.6456 69.3115 11.3621C69.6232 11.1731 70.1266 11.0314 70.8219 10.9133L71.5651 10.7716C71.9487 10.7007 72.2365 10.6298 72.4522 10.559ZM98.7529 5.88588C98.1775 5.05911 97.4583 4.44494 96.5952 4.06699C95.7321 3.68904 94.7491 3.50007 93.6702 3.50007C91.8241 3.50007 90.3377 4.06699 89.1869 5.20084C88.0361 6.33469 87.4607 7.98823 87.4607 10.1142C87.4607 12.3819 88.108 14.0354 89.3787 15.0512C90.6493 16.0669 92.1358 16.563 93.7901 16.563C95.804 16.563 97.3624 15.9724 98.4892 14.7677C99.2084 14.0118 99.616 13.2795 99.7119 12.5473H96.3794C96.1876 12.9016 95.9718 13.185 95.7081 13.3976C95.2286 13.7756 94.6292 13.9646 93.886 13.9646C93.1907 13.9646 92.5913 13.7992 92.0879 13.4921C91.2487 12.9961 90.8172 12.1221 90.7692 10.8937H99.8798C99.8798 9.83073 99.8558 9.00397 99.7599 8.43704C99.592 7.46854 99.2564 6.61816 98.7529 5.88588ZM90.8411 8.76775C90.961 7.9646 91.2487 7.32681 91.7042 6.85438C92.1598 6.38194 92.8071 6.14572 93.6702 6.16934C94.4374 6.16934 95.0847 6.38194 95.6122 6.83075C96.1157 7.25595 96.4273 7.91736 96.4753 8.76775H90.8411Z" fill="#4D49F4"/>
</svg>
