<svg width="362" height="53" viewBox="0 0 362 53" fill="none" xmlns="http://www.w3.org/2000/svg">
<path d="M0.989227 22.8952V18.2297H19.4852V23.0213L8.0204 35.4624H19.8883V40.1699H0.183105V35.7146L11.7823 22.8952H0.989227Z" fill="#4D49F4"/>
<path d="M40.8477 18.6497C42.4599 19.3222 43.8035 20.415 44.8783 21.886C45.8188 23.189 46.4458 24.7021 46.7593 26.4254C46.9384 27.4341 46.9832 28.9052 46.9832 30.7966H29.965C30.0546 32.9822 30.8607 34.5373 32.4282 35.42C33.3687 35.9664 34.4883 36.2606 35.787 36.2606C37.1754 36.2606 38.295 35.9243 39.1907 35.2518C39.6833 34.8736 40.0864 34.3692 40.4446 33.7387H46.6697C46.4906 35.0417 45.7292 36.3446 44.3857 37.6896C42.2808 39.8332 39.325 40.926 35.5631 40.926C32.473 40.926 29.6963 40.0434 27.3228 38.236C24.9492 36.4287 23.74 33.4865 23.74 29.4516C23.74 25.6688 24.8148 22.7267 26.9645 20.7092C29.1141 18.6917 31.8908 17.683 35.3392 17.683C37.3993 17.6409 39.2355 17.9772 40.8477 18.6497ZM31.7116 23.6093C30.8607 24.4499 30.3233 25.5847 30.0994 27.0138H40.6238C40.5342 25.5007 39.952 24.3238 39.0115 23.5673C38.0263 22.7687 36.8171 22.3904 35.384 22.3904C33.7717 22.3484 32.5626 22.7687 31.7116 23.6093Z" fill="#4D49F4"/>
<path d="M70.2264 19.4904C71.7491 20.6673 72.5104 22.6427 72.5104 25.4168V40.2116H66.2406V26.8038C66.2406 25.669 66.0614 24.7443 65.7479 24.1559C65.1657 23.021 64.0013 22.4746 62.3443 22.4746C60.2842 22.4746 58.8511 23.3152 58.0898 24.9544C57.6867 25.8371 57.5076 26.9299 57.5076 28.3169V40.2116H51.3721V18.2715H57.2836V21.4659C58.045 20.331 58.8063 19.5325 59.5229 19.0281C60.7768 18.1454 62.3443 17.6831 64.27 17.6831C66.7332 17.6831 68.7037 18.3136 70.2264 19.4904Z" fill="#4D49F4"/>
<path d="M94.768 18.6499C96.3802 19.3223 97.7237 20.4151 98.7986 21.8862C99.739 23.1892 100.366 24.7023 100.68 26.4256C100.859 27.4343 100.903 28.9054 100.903 30.7968H83.8853C83.9749 32.9824 84.781 34.5375 86.3485 35.4201C87.289 35.9665 88.4086 36.2608 89.7073 36.2608C91.0956 36.2608 92.2152 35.9245 93.1109 35.252C93.6036 34.8737 94.0066 34.3694 94.3649 33.7389H100.59C100.411 35.0419 99.6495 36.3448 98.3059 37.6898C96.2011 39.8334 93.2901 40.8842 89.5282 40.8842C86.438 40.8842 83.6614 40.0015 81.2878 38.1942C78.9143 36.3869 77.7051 33.4447 77.7051 29.4097C77.7051 25.627 78.7799 22.6848 80.9296 20.6673C83.0792 18.6499 85.8559 17.6411 89.3043 17.6411C91.2748 17.6411 93.1109 17.9774 94.768 18.6499ZM85.5871 23.6095C84.7362 24.4501 84.1988 25.5849 83.9749 27.014H94.4993C94.4097 25.5009 93.8275 24.324 92.887 23.5675C91.9018 22.7689 90.6926 22.3906 89.2595 22.3906C87.692 22.3486 86.4828 22.7689 85.5871 23.6095Z" fill="#4D49F4"/>
<path d="M118.235 17.7251C118.325 17.7251 118.504 17.7251 118.773 17.7672V23.6515C118.37 23.6094 118.056 23.5674 117.743 23.5674C117.429 23.5674 117.205 23.5674 117.026 23.5674C114.563 23.5674 112.906 24.324 112.055 25.8371C111.562 26.6777 111.338 27.9806 111.338 29.7459V40.2537H105.203V18.2295H111.025V22.0543C111.965 20.5832 112.771 19.5745 113.488 19.0701C114.652 18.1875 116.13 17.7251 117.966 17.7251C118.101 17.6831 118.19 17.6831 118.235 17.7251Z" fill="#4D49F4"/>
<path d="M132.925 26.8038C134.044 26.6777 134.895 26.5096 135.388 26.2994C136.283 25.9632 136.686 25.4168 136.686 24.6602C136.686 23.7776 136.328 23.1471 135.656 22.8109C134.985 22.4746 133.999 22.3065 132.701 22.3065C131.223 22.3065 130.193 22.6427 129.61 23.3152C129.163 23.8196 128.894 24.4921 128.76 25.3327H122.848C122.982 23.3993 123.565 21.8442 124.55 20.5832C126.162 18.6498 128.939 17.6831 132.925 17.6831C135.477 17.6831 137.761 18.1454 139.777 19.1122C141.792 20.0789 142.777 21.8442 142.777 24.4921V34.5795C142.777 35.294 142.777 36.1346 142.822 37.1013C142.867 37.8579 143.001 38.3623 143.18 38.6144C143.359 38.8666 143.673 39.1188 144.076 39.2869V40.1275H137.448C137.269 39.6652 137.134 39.2869 137.045 38.8666C136.955 38.4883 136.91 38.026 136.866 37.5216C136.015 38.3623 135.029 39.1188 133.91 39.7072C132.566 40.4218 131.088 40.758 129.431 40.758C127.282 40.758 125.535 40.2116 124.147 39.0768C122.758 37.9419 122.087 36.3448 122.087 34.2432C122.087 31.5533 123.206 29.5778 125.446 28.401C126.655 27.7285 128.491 27.2661 130.864 26.9719L132.925 26.8038ZM136.686 29.4938C136.283 29.7039 135.88 29.9141 135.522 30.0402C135.119 30.1663 134.582 30.2923 133.865 30.4184L132.477 30.6706C131.178 30.8808 130.237 31.133 129.655 31.4692C128.67 31.9736 128.222 32.8142 128.222 33.907C128.222 34.8737 128.536 35.5882 129.118 36.0506C129.7 36.4709 130.417 36.7231 131.268 36.7231C132.611 36.7231 133.82 36.3448 134.94 35.6303C136.059 34.9157 136.642 33.5707 136.686 31.6794V29.4938Z" fill="#4D49F4"/>
<path d="M147.031 22.5167V18.4397H150.3V12.3032H156.346V18.4397H160.153V22.5167H156.346V34.1172C156.346 34.9999 156.481 35.5883 156.704 35.7985C156.928 36.0086 157.69 36.1347 158.944 36.1347C159.123 36.1347 159.347 36.1347 159.526 36.1347C159.75 36.1347 159.929 36.1347 160.153 36.0927V40.3799L157.242 40.4639C154.331 40.548 152.36 40.0856 151.33 39.0349C150.659 38.3624 150.3 37.3536 150.3 36.0086V22.5167H147.031Z" fill="#4D49F4"/>
<path d="M180.62 18.6499C182.232 19.3223 183.576 20.4151 184.651 21.8862C185.591 23.1892 186.218 24.7023 186.532 26.4256C186.711 27.4343 186.755 28.9054 186.755 30.7968H169.737C169.827 32.9824 170.633 34.5375 172.201 35.4201C173.141 35.9665 174.261 36.2608 175.559 36.2608C176.948 36.2608 178.067 35.9245 178.963 35.252C179.456 34.8737 179.859 34.3694 180.217 33.7389H186.442C186.263 35.0419 185.501 36.3448 184.158 37.6898C182.053 39.8334 179.142 40.8842 175.38 40.8842C172.29 40.8842 169.513 40.0015 167.14 38.1942C164.766 36.3869 163.557 33.4447 163.557 29.4097C163.557 25.627 164.632 22.6848 166.782 20.6673C168.931 18.6499 171.708 17.6411 175.156 17.6411C177.172 17.6411 179.008 17.9774 180.62 18.6499ZM171.484 23.6095C170.633 24.4501 170.096 25.5849 169.872 27.014H180.396C180.307 25.5009 179.724 24.324 178.784 23.5675C177.799 22.7689 176.589 22.3906 175.156 22.3906C173.544 22.3486 172.335 22.7689 171.484 23.6095Z" fill="#4D49F4"/>
<path d="M19.9335 44.9194H0.228271V49.6689H19.9335V44.9194Z" fill="#4D49F4"/>
<path d="M225.54 19.436C227.92 19.436 229.834 20.1712 231.281 21.6415C232.752 23.0886 233.487 25.1191 233.487 27.7331V39.1111H228.586V28.3983C228.586 26.8812 228.2 25.7259 227.43 24.9324C226.66 24.1155 225.61 23.7071 224.279 23.7071C222.949 23.7071 221.887 24.1155 221.094 24.9324C220.323 25.7259 219.938 26.8812 219.938 28.3983V39.1111H215.037V28.3983C215.037 26.8812 214.652 25.7259 213.882 24.9324C213.112 24.1155 212.061 23.7071 210.731 23.7071C209.377 23.7071 208.304 24.1155 207.51 24.9324C206.74 25.7259 206.355 26.8812 206.355 28.3983V39.1111H201.453V19.716H206.355V22.0617C206.985 21.2448 207.79 20.6029 208.77 20.1361C209.774 19.6694 210.871 19.436 212.061 19.436C213.578 19.436 214.932 19.7627 216.122 20.4162C217.313 21.0464 218.235 21.9566 218.888 23.1469C219.518 22.0266 220.428 21.1281 221.619 20.4512C222.832 19.7744 224.139 19.436 225.54 19.436ZM246.75 39.4262C244.883 39.4262 243.202 39.0177 241.709 38.2008C240.215 37.3606 239.036 36.182 238.173 34.6649C237.333 33.1479 236.912 31.3974 236.912 29.4136C236.912 27.4297 237.344 25.6793 238.208 24.1622C239.095 22.6451 240.297 21.4782 241.814 20.6613C243.331 19.8211 245.023 19.401 246.89 19.401C248.757 19.401 250.449 19.8211 251.966 20.6613C253.483 21.4782 254.674 22.6451 255.537 24.1622C256.424 25.6793 256.868 27.4297 256.868 29.4136C256.868 31.3974 256.413 33.1479 255.502 34.6649C254.615 36.182 253.402 37.3606 251.861 38.2008C250.344 39.0177 248.641 39.4262 246.75 39.4262ZM246.75 35.1551C247.637 35.1551 248.465 34.945 249.236 34.5249C250.029 34.0814 250.659 33.4279 251.126 32.5644C251.593 31.7008 251.826 30.6506 251.826 29.4136C251.826 27.5697 251.336 26.1577 250.356 25.1775C249.399 24.1739 248.22 23.6721 246.82 23.6721C245.42 23.6721 244.241 24.1739 243.284 25.1775C242.351 26.1577 241.884 27.5697 241.884 29.4136C241.884 31.2574 242.339 32.6811 243.249 33.6847C244.183 34.6649 245.35 35.1551 246.75 35.1551ZM259.203 29.3435C259.203 27.383 259.588 25.6442 260.358 24.1272C261.151 22.6101 262.225 21.4432 263.579 20.6263C264.932 19.8094 266.438 19.401 268.095 19.401C269.355 19.401 270.557 19.681 271.701 20.2412C272.845 20.778 273.755 21.5015 274.432 22.4117V13.2043H279.403V39.1111H274.432V36.2403C273.825 37.1973 272.973 37.9675 271.876 38.5509C270.779 39.1344 269.507 39.4262 268.06 39.4262C266.426 39.4262 264.932 39.0061 263.579 38.1658C262.225 37.3256 261.151 36.147 260.358 34.6299C259.588 33.0895 259.203 31.3274 259.203 29.3435ZM274.467 29.4136C274.467 28.2233 274.233 27.208 273.766 26.3678C273.3 25.5042 272.669 24.8507 271.876 24.4073C271.082 23.9405 270.23 23.7071 269.32 23.7071C268.41 23.7071 267.57 23.9288 266.8 24.3723C266.029 24.8157 265.399 25.4692 264.909 26.3328C264.442 27.173 264.209 28.1766 264.209 29.3435C264.209 30.5105 264.442 31.5374 264.909 32.4243C265.399 33.2879 266.029 33.9531 266.8 34.4199C267.593 34.8867 268.433 35.12 269.32 35.12C270.23 35.12 271.082 34.8983 271.876 34.4549C272.669 33.9881 273.3 33.3346 273.766 32.4944C274.233 31.6308 274.467 30.6039 274.467 29.4136ZM302.5 19.716V39.1111H297.563V36.6604C296.933 37.5007 296.105 38.1658 295.078 38.656C294.074 39.1228 292.977 39.3561 291.787 39.3561C290.27 39.3561 288.928 39.0411 287.761 38.4109C286.594 37.7574 285.672 36.8122 284.995 35.5752C284.342 34.3148 284.015 32.8211 284.015 31.094V19.716H288.916V30.3938C288.916 31.9342 289.301 33.1245 290.071 33.9647C290.842 34.7816 291.892 35.1901 293.222 35.1901C294.576 35.1901 295.638 34.7816 296.408 33.9647C297.178 33.1245 297.563 31.9342 297.563 30.3938V19.716H302.5ZM312.237 13.2043V39.1111H307.335V13.2043H312.237ZM315.819 29.3435C315.819 27.383 316.204 25.6442 316.974 24.1272C317.768 22.6101 318.83 21.4432 320.16 20.6263C321.514 19.8094 323.019 19.401 324.676 19.401C326.123 19.401 327.384 19.6927 328.457 20.2762C329.554 20.8597 330.429 21.5949 331.083 22.4818V19.716H336.019V39.1111H331.083V36.2753C330.453 37.1856 329.577 37.9441 328.457 38.5509C327.36 39.1344 326.088 39.4262 324.641 39.4262C323.007 39.4262 321.514 39.0061 320.16 38.1658C318.83 37.3256 317.768 36.147 316.974 34.6299C316.204 33.0895 315.819 31.3274 315.819 29.3435ZM331.083 29.4136C331.083 28.2233 330.849 27.208 330.383 26.3678C329.916 25.5042 329.286 24.8507 328.492 24.4073C327.699 23.9405 326.847 23.7071 325.937 23.7071C325.026 23.7071 324.186 23.9288 323.416 24.3723C322.646 24.8157 322.016 25.4692 321.525 26.3328C321.059 27.173 320.825 28.1766 320.825 29.3435C320.825 30.5105 321.059 31.5374 321.525 32.4243C322.016 33.2879 322.646 33.9531 323.416 34.4199C324.209 34.8867 325.05 35.12 325.937 35.12C326.847 35.12 327.699 34.8983 328.492 34.4549C329.286 33.9881 329.916 33.3346 330.383 32.4944C330.849 31.6308 331.083 30.6039 331.083 29.4136ZM345.707 22.7268C346.338 21.6999 347.154 20.8947 348.158 20.3112C349.185 19.7277 350.352 19.436 351.659 19.436V24.5823H350.364C348.823 24.5823 347.656 24.9441 346.863 25.6676C346.092 26.3911 345.707 27.6514 345.707 29.4486V39.1111H340.806V19.716H345.707V22.7268Z" fill="#90A3C3"/>
</svg>
